<?xml version="1.0" standalone="no"?>
<!DOCTYPE svg PUBLIC "-//W3C//DTD SVG 20010904//EN"
 "http://www.w3.org/TR/2001/REC-SVG-20010904/DTD/svg10.dtd">
<svg version="1.0" xmlns="http://www.w3.org/2000/svg"
 width="700.000000pt" height="700.000000pt" viewBox="0 0 700.000000 700.000000"
 preserveAspectRatio="xMidYMid meet">
<metadata>
Created by potrace 1.11, written by Peter Selinger 2001-2013
</metadata>
<g transform="translate(0.000000,700.000000) scale(0.100000,-0.100000)"
fill="#000000" stroke="none">
<path d="M3397 6124 c-1 -1 -40 -5 -87 -8 -153 -12 -453 -82 -565 -131 -213
-94 -327 -158 -475 -269 -157 -116 -362 -331 -456 -476 -16 -25 -31 -47 -35
-50 -12 -10 -77 -128 -121 -220 -68 -141 -134 -332 -153 -441 -3 -19 -10 -52
-15 -75 -5 -22 -12 -69 -15 -105 -4 -35 -8 -75 -11 -89 -6 -35 -5 -296 1 -350
3 -25 7 -67 10 -95 15 -135 74 -359 132 -500 57 -137 168 -337 237 -427 12
-14 32 -41 46 -59 44 -59 101 -121 215 -234 127 -125 175 -198 207 -314 19
-71 21 -103 22 -501 l2 -425 26 -73 c59 -166 165 -285 313 -352 89 -41 153
-54 261 -54 57 0 63 -2 78 -27 29 -49 130 -145 191 -183 171 -105 403 -107
579 -7 71 41 132 95 180 161 l41 55 78 2 c43 1 102 7 130 13 205 47 387 229
438 436 8 33 13 181 14 464 3 458 6 485 67 610 25 49 61 93 148 181 181 181
243 257 367 448 37 57 135 256 158 321 56 157 96 307 111 415 3 28 10 73 14
100 9 54 6 444 -4 485 -3 13 -8 42 -12 65 -5 34 -22 119 -39 190 -11 44 -48
155 -77 230 -199 503 -593 909 -1088 1122 -143 62 -332 118 -460 138 -25 4
-54 9 -64 11 -55 10 -380 26 -389 18z m-102 -1983 l204 -204 238 236 237 237
103 -103 102 -102 -266 -267 -267 -267 0 -376 0 -375 -26 -1 c-102 -3 -248 -1
-257 4 -6 4 -9 141 -8 374 l1 368 -268 270 -268 271 102 101 103 101 33 -31
c19 -18 126 -124 237 -236z m781 -1813 c7 -5 11 -242 5 -279 -1 -3 -263 -6
-583 -6 l-583 0 1 137 c0 75 3 140 6 146 6 10 1138 12 1154 2z m5 -585 c5 -35
3 -276 -3 -279 -5 -3 -713 -6 -1133 -4 l-30 0 2 142 c1 79 2 144 2 146 2 6
1161 1 1162 -5z"/>
</g>
</svg>
